<svg xmlns="http://www.w3.org/2000/svg" width="22" height="22" fill="none"><path stroke="#000" stroke-width="1.2" d="M11 19c-.255 0-.502-.093-.695-.261-.725-.634-1.428-1.232-2.047-1.759a38.052 38.052 0 01-4.472-4.194A6.69 6.69 0 012 8.407a5.615 5.615 0 011.427-3.84A4.84 4.84 0 017.03 3a4.53 4.53 0 012.83.975c.435.341.82.743 1.142 1.194.322-.45.707-.852 1.144-1.193A4.53 4.53 0 0114.97 3a4.844 4.844 0 013.6 1.566A5.615 5.615 0 0120 8.406a6.689 6.689 0 01-1.782 4.38 38.045 38.045 0 01-4.469 4.191c-.62.528-1.321 1.126-2.05 1.763-.194.168-.441.26-.697.26v0z"/></svg>