<svg xmlns="http://www.w3.org/2000/svg" width="99" height="21" fill="none">
  <path fill="#1F2020" d="M12.87 12.72c-.528 1.65-1.98 3.3-4.51 3.3-2.882 0-5.06-2.2-5.06-5.72 0-3.52 2.178-5.72 5.06-5.72 1.958 0 3.74 1.1 4.51 3.19h2.42c-.638-2.75-3.08-5.39-6.93-5.39C4.312 2.38.99 5.57.99 10.3s3.322 7.92 7.37 7.92c4.158 0 6.402-3.08 6.93-5.5h-2.42zm11.56 5.5c4.048 0 7.37-3.19 7.37-7.92s-3.322-7.92-7.37-7.92-7.37 3.19-7.37 7.92 3.322 7.92 7.37 7.92zm0-13.64c2.882 0 5.06 2.2 5.06 5.72 0 3.52-2.178 5.72-5.06 5.72-2.882 0-5.06-2.2-5.06-5.72 0-3.52 2.178-5.72 5.06-5.72zM34.435 18h9.79v-2.2h-7.48V2.6h-2.31V18zm17.71.22c4.048 0 7.37-3.19 7.37-7.92s-3.322-7.92-7.37-7.92-7.37 3.19-7.37 7.92 3.322 7.92 7.37 7.92zm0-13.64c2.882 0 5.06 2.2 5.06 5.72 0 3.52-2.178 5.72-5.06 5.72-2.882 0-5.06-2.2-5.06-5.72 0-3.52 2.178-5.72 5.06-5.72zM62.15 18h2.31v-5.5h1.1l5.5 5.5h2.97l-5.5-5.5h.55c2.53 0 4.51-1.958 4.51-4.95S71.61 2.6 69.08 2.6h-6.93V18zm2.31-7.7V4.8h4.51c1.232 0 2.31 1.1 2.31 2.75s-1.078 2.75-2.31 2.75h-4.51zm11.229 2.97c0 2.75 2.2 4.95 6.05 4.95 3.85 0 5.83-1.98 5.83-4.51 0-2.442-1.408-3.74-4.51-4.29l-2.42-.44c-1.672-.33-2.31-1.1-2.31-2.09 0-1.232 1.1-2.31 3.19-2.31 2.2 0 3.52 1.32 3.52 2.75h2.31c0-2.75-1.98-4.95-5.83-4.95-3.41 0-5.5 1.98-5.5 4.51 0 2.112 1.188 3.63 3.63 4.07l2.97.55c1.76.33 2.64 1.078 2.64 2.2 0 1.32-.99 2.31-3.52 2.31-2.288 0-3.74-1.32-3.74-2.75h-2.31z"/>
  <circle cx="95" cy="6" r="4" fill="#1F2020"/>
</svg>